<?xml version="1.0" standalone="no"?><!DOCTYPE svg PUBLIC "-//W3C//DTD SVG 1.1//EN" "http://www.w3.org/Graphics/SVG/1.1/DTD/svg11.dtd"><svg t="1647368169899" class="icon" viewBox="0 0 1024 1024" version="1.1" xmlns="http://www.w3.org/2000/svg" p-id="5916" xmlns:xlink="http://www.w3.org/1999/xlink" width="200" height="200"><defs><style type="text/css"></style></defs><path d="M368.64 655.36a32.170667 32.170667 0 0 1 0-45.226667l241.493333-241.450666a32 32 0 1 1 45.226667 45.226666l-241.493333 241.493334a30.933333 30.933333 0 0 1-22.613334 9.386666 31.658667 31.658667 0 0 1-22.613333-9.429333z" fill="#1296db" p-id="5917"></path><path d="M610.133333 655.36L368.64 413.866667a32 32 0 0 1 45.184-45.184l241.493333 241.493333a32.170667 32.170667 0 0 1 0 45.226667 31.914667 31.914667 0 0 1-45.226666 0z" fill="#1296db" p-id="5918"></path><path d="M640 970.666667H384c-231.765333 0-330.666667-98.901333-330.666667-330.666667V384c0-231.765333 98.901333-330.666667 330.666667-330.666667h256c231.765333 0 330.666667 98.901333 330.666667 330.666667v256c0 231.765333-98.901333 330.666667-330.666667 330.666667z m-256-853.333334C187.136 117.333333 117.333333 187.136 117.333333 384v256c0 196.864 69.802667 266.666667 266.666667 266.666667h256c196.864 0 266.666667-69.802667 266.666667-266.666667V384c0-196.864-69.76-266.666667-266.666667-266.666667z" fill="#1296db" p-id="5919"></path></svg>