<?xml version="1.0" standalone="no"?><!DOCTYPE svg PUBLIC "-//W3C//DTD SVG 1.1//EN" "http://www.w3.org/Graphics/SVG/1.1/DTD/svg11.dtd"><svg t="1647367964168" class="icon" viewBox="0 0 1024 1024" version="1.1" xmlns="http://www.w3.org/2000/svg" p-id="5618" xmlns:xlink="http://www.w3.org/1999/xlink" width="200" height="200"><defs><style type="text/css"></style></defs><path d="M640 970.666667H384c-231.765333 0-330.666667-98.901333-330.666667-330.666667V384c0-231.765333 98.901333-330.666667 330.666667-330.666667h256c231.765333 0 330.666667 98.901333 330.666667 330.666667v256c0 231.765333-98.901333 330.666667-330.666667 330.666667z m-256-853.333334C187.136 117.333333 117.333333 187.136 117.333333 384v256c0 196.864 69.802667 266.666667 266.666667 266.666667h256c196.864 0 266.666667-69.802667 266.666667-266.666667V384c0-196.864-69.76-266.666667-266.666667-266.666667z" fill="#ffffff" p-id="5619"></path><path d="M489.344 641.664l-128-128a32 32 0 0 1 45.226667-45.184l105.386666 105.386667 105.429334-105.386667a32 32 0 0 1 45.226666 45.226667l-128 128a31.914667 31.914667 0 0 1-45.226666 0z" fill="#ffffff" p-id="5620"></path><path d="M480 619.093333v-341.333333a32.213333 32.213333 0 0 1 32-32 32.213333 32.213333 0 0 1 32 32v341.333333a32 32 0 0 1-64 0zM245.76 734.72a32.128 32.128 0 0 1-20.053333-40.533333 31.616 31.616 0 0 1 40.533333-20.053334 782.208 782.208 0 0 0 491.946667 0 32 32 0 1 1 20.565333 60.586667 836.906667 836.906667 0 0 1-266.666667 43.093333 844.373333 844.373333 0 0 1-266.325333-43.093333z" fill="#ffffff" p-id="5621"></path></svg>